HWT Grecian OM2.ufo
<glyph name="exclam" format="2">
  <advance width="72"/>
  <unicode hex="0021"/>
  <outline>
    <contour>
      <point x="62" y="700" type="line"/>
      <point x="10" y="700" type="line"/>
      <point x="10" y="470" type="line"/>
      <point x="30" y="143" type="line"/>
      <point x="42" y="143" type="line"/>
      <point x="62" y="470" type="line"/>
    </contour>
    <contour>
      <point x="55" y="89" type="line"/>
      <point x="17" y="89" type="line"/>
      <point x="17" y="0" type="line"/>
      <point x="55" y="0" type="line"/>
    </contour>
  </outline>
</glyph>
<glyph name="dollar" format="2">
  <advance width="190"/>
  <unicode hex="0024"/>
  <outline>
    <contour>
      <point x="44" y="325" type="line"/>
      <point x="129" y="325" type="line"/>
      <point x="129" y="58" type="line"/>
      <point x="61" y="58" type="line"/>
      <point x="61" y="231" type="line"/>
      <point x="13" y="231" type="line"/>
      <point x="13" y="20" type="line"/>
      <point x="48" y="20" type="line"/>
      <point x="63" y="35" type="line"/>
      <point x="77" y="20" type="line"/>
      <point x="143" y="20" type="line"/>
      <point x="180" y="54" type="line"/>
      <point x="180" y="347" type="line"/>
      <point x="143" y="383" type="line"/>
      <point x="61" y="383" type="line"/>
      <point x="61" y="643" type="line"/>
      <point x="130" y="643" type="line"/>
      <point x="130" y="477" type="line"/>
      <point x="172" y="477" type="line"/>
      <point x="172" y="681" type="line"/>
      <point x="143" y="681" type="line"/>
      <point x="132" y="664" type="line"/>
      <point x="119" y="681" type="line"/>
      <point x="48" y="681" type="line"/>
      <point x="13" y="640" type="line"/>
      <point x="13" y="360" type="line"/>
    </contour>
    <contour>
      <point x="88" y="0" type="line"/>
      <point x="103" y="0" type="line"/>
      <point x="103" y="700" type="line"/>
      <point x="88" y="700" type="line"/>
    </contour>
  </outline>
  <guideline angle="90" x="10" y="0"/>
  <guideline angle="90" x="179" y="0"/>
  <guideline angle="90" x="58" y="0"/>
</glyph>
<glyph name="ampersand" format="2">
  <advance width="225"/>
  <unicode hex="0026"/>
  <outline>
    <contour>
      <point x="204" y="229" type="line"/>
      <point x="108" y="58" type="line"/>
      <point x="60" y="371" type="line"/>
      <point x="184" y="563" type="line"/>
      <point x="167" y="658" type="line"/>
      <point x="112" y="700" type="line"/>
      <point x="74" y="694" type="line"/>
      <point x="45" y="646" type="line"/>
      <point x="138" y="43" type="line"/>
      <point x="170" y="0" type="line"/>
      <point x="215" y="0" type="line"/>
      <point x="215" y="38" type="line"/>
      <point x="198" y="38" type="line"/>
      <point x="100" y="662" type="line"/>
      <point x="126" y="662" type="line"/>
      <point x="140" y="568" type="line"/>
      <point x="27" y="387" type="line"/>
      <point x="10" y="312" type="line"/>
      <point x="53" y="32" type="line"/>
      <point x="83" y="0" type="line"/>
      <point x="112" y="0" type="line"/>
      <point x="215" y="171" type="line"/>
      <point x="215" y="229" type="line"/>
    </contour>
  </outline>
  <guideline angle="90" x="215" y="0"/>
</glyph>
<glyph name="hyphen" format="2">
  <advance width="92"/>
  <unicode hex="002D"/>
  <outline>
    <contour>
      <point x="10" y="319" type="line"/>
      <point x="82" y="319" type="line"/>
      <point x="82" y="364" type="line"/>
      <point x="10" y="364" type="line"/>
    </contour>
  </outline>
</glyph>
<glyph name="zero" format="2">
  <advance width="152"/>
  <unicode hex="0030"/>
  <outline>
    <contour>
      <point x="46" y="0" type="line"/>
      <point x="105" y="0" type="line"/>
      <point x="142" y="49" type="line"/>
      <point x="142" y="649" type="line"/>
      <point x="105" y="700" type="line"/>
      <point x="46" y="700" type="line"/>
      <point x="10" y="649" type="line"/>
      <point x="10" y="48" type="line"/>
    </contour>
    <contour>
      <point x="62" y="662" type="line"/>
      <point x="91" y="662" type="line"/>
      <point x="91" y="38" type="line"/>
      <point x="62" y="38" type="line"/>
    </contour>
  </outline>
</glyph>
<glyph name="one" format="2">
  <advance width="102"/>
  <unicode hex="0031"/>
  <outline>
    <contour>
      <point x="80" y="700" type="line"/>
      <point x="59" y="700" type="line"/>
      <point x="37" y="678" type="line"/>
      <point x="10" y="678" type="line"/>
      <point x="10" y="640" type="line"/>
      <point x="28" y="640" type="line"/>
      <point x="28" y="38" type="line"/>
      <point x="10" y="38" type="line"/>
      <point x="10" y="0" type="line"/>
      <point x="96" y="0" type="line"/>
      <point x="96" y="38" type="line"/>
      <point x="80" y="38" type="line"/>
    </contour>
  </outline>
  <guideline angle="90" x="10" y="0"/>
</glyph>
<glyph name="two" format="2">
  <advance width="148"/>
  <unicode hex="0032"/>
  <outline>
    <contour>
      <point x="13" y="475" type="line"/>
      <point x="56" y="475" type="line"/>
      <point x="56" y="662" type="line"/>
      <point x="88" y="662" type="line"/>
      <point x="88" y="437" type="line"/>
      <point x="10" y="65" type="line"/>
      <point x="10" y="0" type="line"/>
      <point x="28" y="0" type="line"/>
      <point x="53" y="0" type="line"/>
      <point x="60" y="15" type="line"/>
      <point x="60" y="92" type="line"/>
      <point x="138" y="438" type="line"/>
      <point x="138" y="658" type="line"/>
      <point x="104" y="700" type="line"/>
      <point x="48" y="700" type="line"/>
      <point x="13" y="658" type="line"/>
    </contour>
    <contour>
      <point x="119" y="0" type="line"/>
      <point x="137" y="20" type="line"/>
      <point x="137" y="115" type="line"/>
      <point x="91" y="115" type="line"/>
      <point x="91" y="45" type="line"/>
      <point x="44" y="62" type="line"/>
      <point x="44" y="23" type="line"/>
      <point x="94" y="0" type="line"/>
    </contour>
  </outline>
  <guideline angle="90" x="135" y="0"/>
  <guideline angle="90" x="-249" y="0"/>
  <guideline angle="90" x="53" y="0"/>
  <guideline angle="90" x="10" y="0"/>
</glyph>
<glyph name="three" format="2">
  <advance width="143"/>
  <unicode hex="0033"/>
  <outline>
    <contour>
      <point x="51" y="662" type="line"/>
      <point x="80" y="662" type="line"/>
      <point x="80" y="379" type="line"/>
      <point x="70" y="369" type="line"/>
      <point x="62" y="369" type="line"/>
      <point x="62" y="327" type="line"/>
      <point x="70" y="327" type="line"/>
      <point x="80" y="317" type="line"/>
      <point x="80" y="38" type="line"/>
      <point x="51" y="38" type="line"/>
      <point x="51" y="231" type="line"/>
      <point x="10" y="231" type="line"/>
      <point x="10" y="51" type="line"/>
      <point x="46" y="0" type="line"/>
      <point x="99" y="0" type="line"/>
      <point x="133" y="43" type="line"/>
      <point x="133" y="317" type="line"/>
      <point x="105" y="352" type="line"/>
      <point x="133" y="381" type="line"/>
      <point x="133" y="653" type="line"/>
      <point x="100" y="700" type="line"/>
      <point x="38" y="700" type="line"/>
      <point x="10" y="653" type="line"/>
      <point x="10" y="470" type="line"/>
      <point x="51" y="470" type="line"/>
    </contour>
  </outline>
  <guideline angle="90" x="133" y="0"/>
  <guideline angle="90" x="10" y="0"/>
  <guideline angle="90" x="51" y="0"/>
</glyph>
<glyph name="four" format="2">
  <advance width="183"/>
  <unicode hex="0034"/>
  <outline>
    <contour>
      <point x="76" y="0" type="line"/>
      <point x="164" y="0" type="line"/>
      <point x="164" y="38" type="line"/>
      <point x="147" y="38" type="line"/>
      <point x="147" y="682" type="line"/>
      <point x="92" y="555" type="line"/>
      <point x="92" y="38" type="line"/>
      <point x="76" y="38" type="line"/>
    </contour>
    <contour>
      <point x="10" y="192" type="line"/>
      <point x="173" y="192" type="line"/>
      <point x="173" y="230" type="line"/>
      <point x="10" y="230" type="line"/>
    </contour>
    <contour>
      <point x="113" y="700" type="line"/>
      <point x="10" y="230" type="line"/>
      <point x="43" y="220" type="line"/>
      <point x="147" y="682" type="line"/>
      <point x="147" y="700" type="line"/>
    </contour>
  </outline>
  <guideline angle="90" x="337" y="0"/>
</glyph>
<glyph name="five" format="2">
  <advance width="146"/>
  <unicode hex="0035"/>
  <outline>
    <contour>
      <point x="136" y="46" type="line"/>
      <point x="136" y="404" type="line"/>
      <point x="107" y="445" type="line"/>
      <point x="77" y="445" type="line"/>
      <point x="48" y="416" type="line"/>
      <point x="52" y="407" type="line"/>
      <point x="85" y="407" type="line"/>
      <point x="85" y="38" type="line"/>
      <point x="52" y="38" type="line"/>
      <point x="52" y="231" type="line"/>
      <point x="10" y="231" type="line"/>
      <point x="10" y="43" type="line"/>
      <point x="42" y="0" type="line"/>
      <point x="105" y="0" type="line"/>
    </contour>
    <contour>
      <point x="133" y="689" type="line"/>
      <point x="123" y="700" type="line"/>
      <point x="50" y="700" type="line"/>
      <point x="32" y="678" type="line"/>
      <point x="14" y="360" type="line"/>
      <point x="55" y="360" type="line"/>
      <point x="71" y="646" type="line"/>
      <point x="123" y="646" type="line"/>
      <point x="133" y="657" type="line"/>
    </contour>
  </outline>
</glyph>
<glyph name="six" format="2">
  <advance width="152"/>
  <unicode hex="0036"/>
  <outline>
    <contour>
      <point x="62" y="662" type="line"/>
      <point x="97" y="662" type="line"/>
      <point x="97" y="501" type="line"/>
      <point x="142" y="501" type="line"/>
      <point x="142" y="649" type="line"/>
      <point x="105" y="700" type="line"/>
      <point x="46" y="700" type="line"/>
      <point x="10" y="649" type="line"/>
      <point x="10" y="46" type="line"/>
      <point x="42" y="0" type="line"/>
      <point x="105" y="0" type="line"/>
      <point x="142" y="49" type="line"/>
      <point x="142" y="398" type="line"/>
      <point x="118" y="429" type="line"/>
      <point x="87" y="429" type="line"/>
      <point x="51" y="399" type="line"/>
      <point x="51" y="389" type="line"/>
      <point x="91" y="389" type="line"/>
      <point x="91" y="38" type="line"/>
      <point x="62" y="38" type="line"/>
    </contour>
  </outline>
</glyph>
<glyph name="seven" format="2">
  <advance width="147"/>
  <unicode hex="0037"/>
  <outline>
    <contour>
      <point x="10" y="647" type="line"/>
      <point x="82" y="700" type="line"/>
      <point x="119" y="700" type="line"/>
      <point x="137" y="680" type="line"/>
      <point x="88" y="0" type="line"/>
      <point x="39" y="0" type="line"/>
      <point x="94" y="662" type="line"/>
      <point x="53" y="662" type="line"/>
      <point x="53" y="475" type="line"/>
      <point x="10" y="475" type="line"/>
    </contour>
    <contour>
      <point x="87" y="662" type="line"/>
      <point x="54" y="662" type="line"/>
      <point x="54" y="475" type="line"/>
      <point x="10" y="475" type="line"/>
      <point x="10" y="700" type="line"/>
      <point x="35" y="700" type="line"/>
      <point x="48" y="683" type="line"/>
      <point x="60" y="700" type="line"/>
      <point x="89" y="700" type="line"/>
    </contour>
    <contour>
      <point x="26" y="38" type="line"/>
      <point x="105" y="38" type="line"/>
      <point x="105" y="0" type="line"/>
      <point x="26" y="0" type="line"/>
    </contour>
  </outline>
</glyph>
<glyph name="eight" format="2">
  <advance width="154"/>
  <unicode hex="0038"/>
  <outline>
    <contour>
      <point x="91" y="662" type="line"/>
      <point x="91" y="369" type="line"/>
      <point x="80" y="369" type="line"/>
      <point x="78" y="327" type="line"/>
      <point x="91" y="327" type="line"/>
      <point x="91" y="38" type="line"/>
      <point x="72" y="38" type="line"/>
      <point x="72" y="0" type="line"/>
      <point x="116" y="0" type="line"/>
      <point x="144" y="45" type="line"/>
      <point x="144" y="324" type="line"/>
      <point x="110" y="353" type="line"/>
      <point x="144" y="377" type="line"/>
      <point x="144" y="651" type="line"/>
      <point x="109" y="700" type="line"/>
      <point x="68" y="700" type="line"/>
      <point x="68" y="662" type="line"/>
    </contour>
    <contour>
      <point x="86" y="662" type="line"/>
      <point x="86" y="700" type="line"/>
      <point x="45" y="700" type="line"/>
      <point x="10" y="651" type="line"/>
      <point x="10" y="377" type="line"/>
      <point x="44" y="353" type="line"/>
      <point x="10" y="324" type="line"/>
      <point x="10" y="45" type="line"/>
      <point x="38" y="0" type="line"/>
      <point x="82" y="0" type="line"/>
      <point x="82" y="38" type="line"/>
      <point x="63" y="38" type="line"/>
      <point x="63" y="327" type="line"/>
      <point x="86" y="327" type="line"/>
      <point x="84" y="369" type="line"/>
      <point x="63" y="369" type="line"/>
      <point x="63" y="662" type="line"/>
    </contour>
  </outline>
  <guideline angle="90" x="144" y="0"/>
</glyph>
<glyph name="nine" format="2">
  <advance width="152"/>
  <unicode hex="0039"/>
  <outline>
    <contour>
      <point x="90" y="38" type="line"/>
      <point x="55" y="38" type="line"/>
      <point x="55" y="199" type="line"/>
      <point x="10" y="199" type="line"/>
      <point x="10" y="46" type="line"/>
      <point x="52" y="0" type="line"/>
      <point x="108" y="0" type="line"/>
      <point x="142" y="43" type="line"/>
      <point x="142" y="663" type="line"/>
      <point x="114" y="700" type="line"/>
      <point x="41" y="700" type="line"/>
      <point x="10" y="660" type="line"/>
      <point x="10" y="303" type="line"/>
      <point x="33" y="274" type="line"/>
      <point x="72" y="274" type="line"/>
      <point x="108" y="304" type="line"/>
      <point x="101" y="314" type="line"/>
      <point x="61" y="314" type="line"/>
      <point x="61" y="662" type="line"/>
      <point x="90" y="662" type="line"/>
    </contour>
  </outline>
</glyph>
<glyph name="question" format="2">
  <advance width="144"/>
  <unicode hex="003F"/>
  <outline>
    <contour>
      <point x="26" y="306" type="line"/>
      <point x="26" y="184" type="line"/>
      <point x="61" y="143" type="line"/>
      <point x="90" y="143" type="line"/>
      <point x="119" y="184" type="line"/>
      <point x="119" y="251" type="line"/>
      <point x="88" y="251" type="line"/>
      <point x="88" y="181" type="line"/>
      <point x="63" y="181" type="line"/>
      <point x="63" y="298" type="line"/>
      <point x="134" y="488" type="line"/>
      <point x="134" y="650" type="line"/>
      <point x="100" y="700" type="line"/>
      <point x="37" y="700" type="line"/>
      <point x="10" y="662" type="line"/>
      <point x="10" y="475" type="line"/>
      <point x="54" y="475" type="line"/>
      <point x="54" y="662" type="line"/>
      <point x="83" y="662" type="line"/>
      <point x="83" y="482" type="line"/>
    </contour>
    <contour>
      <point x="93" y="89" type="line"/>
      <point x="55" y="89" type="line"/>
      <point x="55" y="0" type="line"/>
      <point x="93" y="0" type="line"/>
    </contour>
  </outline>
  <guideline angle="90" x="54" y="0"/>
  <guideline angle="90" x="83" y="0"/>
  <guideline angle="90" x="10" y="0"/>
  <guideline angle="90" x="134" y="0"/>
</glyph>
<glyph name="A" format="2">
  <advance width="189"/>
  <unicode hex="0041"/>
  <outline>
    <contour>
      <point x="2" y="38" type="line"/>
      <point x="2" y="38"/>
      <point x="15" y="38"/>
      <point x="15" y="38" type="curve"/>
      <point x="69" y="682" type="line"/>
      <point x="81" y="700" type="line"/>
      <point x="107" y="700" type="line"/>
      <point x="119" y="682" type="line"/>
      <point x="173" y="38" type="line"/>
      <point x="173" y="38"/>
      <point x="186" y="38"/>
      <point x="186" y="38" type="curve"/>
      <point x="186" y="38"/>
      <point x="187" y="0"/>
      <point x="187" y="0" type="curve"/>
      <point x="187" y="0"/>
      <point x="98" y="0"/>
      <point x="98" y="0" type="curve"/>
      <point x="98" y="0"/>
      <point x="98" y="38"/>
      <point x="98" y="38" type="curve"/>
      <point x="118" y="38" type="line"/>
      <point x="118" y="38"/>
      <point x="107" y="196"/>
      <point x="98" y="319" type="curve"/>
      <point x="89" y="459" type="line"/>
      <point x="87" y="459" type="line"/>
      <point x="79" y="319" type="line"/>
      <point x="60" y="38" type="line"/>
      <point x="60" y="38"/>
      <point x="80" y="38"/>
      <point x="80" y="38" type="curve"/>
      <point x="81" y="0" type="line"/>
      <point x="2" y="0" type="line"/>
    </contour>
    <contour>
      <point x="55" y="160" type="line"/>
      <point x="122" y="160" type="line"/>
      <point x="122" y="119" type="line"/>
      <point x="55" y="119" type="line"/>
    </contour>
  </outline>
  <guideline angle="0" x="0" y="38"/>
  <guideline angle="0" x="0" y="662"/>
  <guideline angle="0" x="0" y="682"/>
  <guideline angle="0" x="0" y="423"/>
  <guideline angle="0" x="0" y="319"/>
</glyph>
<glyph name="B" format="2">
  <advance width="174"/>
  <unicode hex="0042"/>
  <outline>
    <contour>
      <point x="19" y="662" type="line"/>
      <point x="32" y="662" type="line"/>
      <point x="32" y="38" type="line"/>
      <point x="19" y="38" type="line"/>
      <point x="19" y="0" type="line"/>
      <point x="127" y="0" type="line"/>
      <point x="161" y="41" type="line"/>
      <point x="161" y="349" type="line"/>
      <point x="141" y="370" type="line"/>
      <point x="161" y="390" type="line"/>
      <point x="161" y="655" type="line"/>
      <point x="124" y="700" type="line"/>
      <point x="19" y="700" type="line"/>
    </contour>
    <contour>
      <point x="82" y="662" type="line"/>
      <point x="103" y="662" type="line"/>
      <point x="111" y="662" type="line"/>
      <point x="111" y="389" type="line"/>
      <point x="82" y="389" type="line"/>
    </contour>
    <contour>
      <point x="82" y="351" type="line"/>
      <point x="111" y="351" type="line"/>
      <point x="111" y="38" type="line"/>
      <point x="82" y="38" type="line"/>
    </contour>
  </outline>
  <guideline angle="90" x="164" y="0"/>
  <guideline angle="90" x="103" y="0"/>
  <guideline angle="90" x="124" y="0"/>
  <guideline angle="90" x="137" y="0"/>
</glyph>
<glyph name="C" format="2">
  <advance width="146"/>
  <unicode hex="0043"/>
  <outline>
    <contour>
      <point x="140" y="41" type="line"/>
      <point x="140" y="231" type="line"/>
      <point x="90" y="231" type="line"/>
      <point x="90" y="38" type="line"/>
      <point x="61" y="38" type="line"/>
      <point x="61" y="662" type="line"/>
      <point x="96" y="662" type="line"/>
      <point x="96" y="475" type="line"/>
      <point x="140" y="475" type="line"/>
      <point x="140" y="700" type="line"/>
      <point x="115" y="700" type="line"/>
      <point x="102" y="683" type="line"/>
      <point x="90" y="700" type="line"/>
      <point x="45" y="700" type="line"/>
      <point x="11" y="659" type="line"/>
      <point x="11" y="41" type="line"/>
      <point x="45" y="0" type="line"/>
      <point x="106" y="0" type="line"/>
    </contour>
  </outline>
</glyph>
<glyph name="D" format="2">
  <advance width="174"/>
  <unicode hex="0044"/>
  <outline>
    <contour>
      <point x="19" y="662" type="line"/>
      <point x="32" y="662" type="line"/>
      <point x="32" y="38" type="line"/>
      <point x="19" y="38" type="line"/>
      <point x="19" y="0" type="line"/>
      <point x="128" y="0" type="line"/>
      <point x="161" y="40" type="line"/>
      <point x="161" y="654" type="line"/>
      <point x="124" y="700" type="line"/>
      <point x="19" y="700" type="line"/>
    </contour>
    <contour>
      <point x="82" y="38" type="line"/>
      <point x="82" y="662" type="line"/>
      <point x="111" y="662" type="line"/>
      <point x="111" y="38" type="line"/>
    </contour>
  </outline>
</glyph>
<glyph name="E" format="2">
  <advance width="158"/>
  <unicode hex="0045"/>
  <outline>
    <contour>
      <point x="73" y="341" type="line"/>
      <point x="96" y="341" type="line"/>
      <point x="96" y="272" type="line"/>
      <point x="131" y="272" type="line"/>
      <point x="131" y="445" type="line"/>
      <point x="96" y="445" type="line"/>
      <point x="96" y="379" type="line"/>
      <point x="73" y="379" type="line"/>
      <point x="73" y="662" type="line"/>
      <point x="102" y="662" type="line"/>
      <point x="102" y="480" type="line"/>
      <point x="145" y="480" type="line"/>
      <point x="145" y="669" type="line"/>
      <point x="120" y="700" type="line"/>
      <point x="10" y="700" type="line"/>
      <point x="10" y="662" type="line"/>
      <point x="23" y="662" type="line"/>
      <point x="23" y="38" type="line"/>
      <point x="10" y="38" type="line"/>
      <point x="10" y="0" type="line"/>
      <point x="120" y="0" type="line"/>
      <point x="148" y="34" type="line"/>
      <point x="148" y="237" type="line"/>
      <point x="102" y="237" type="line"/>
      <point x="102" y="38" type="line"/>
      <point x="73" y="38" type="line"/>
    </contour>
  </outline>
  <guideline angle="0" x="0" y="784"/>
  <guideline angle="0" x="0" y="369"/>
  <guideline angle="0" x="0" y="331"/>
</glyph>
<glyph name="F" format="2">
  <advance width="164"/>
  <unicode hex="0046"/>
  <outline>
    <contour>
      <point x="82" y="341" type="line"/>
      <point x="105" y="341" type="line"/>
      <point x="105" y="272" type="line"/>
      <point x="140" y="272" type="line"/>
      <point x="140" y="445" type="line"/>
      <point x="105" y="445" type="line"/>
      <point x="105" y="379" type="line"/>
      <point x="82" y="379" type="line"/>
      <point x="82" y="662" type="line"/>
      <point x="111" y="662" type="line"/>
      <point x="111" y="480" type="line"/>
      <point x="154" y="480" type="line"/>
      <point x="154" y="669" type="line"/>
      <point x="129" y="700" type="line"/>
      <point x="19" y="700" type="line"/>
      <point x="19" y="662" type="line"/>
      <point x="32" y="662" type="line"/>
      <point x="32" y="38" type="line"/>
      <point x="19" y="38" type="line"/>
      <point x="19" y="0" type="line"/>
      <point x="97" y="0" type="line"/>
      <point x="97" y="38" type="line"/>
      <point x="82" y="38" type="line"/>
    </contour>
  </outline>
</glyph>
<glyph name="G" format="2">
  <advance width="159"/>
  <unicode hex="0047"/>
  <outline>
    <contour>
      <point x="124" y="0" type="line"/>
      <point x="139" y="0" type="line"/>
      <point x="139" y="307" type="line"/>
      <point x="149" y="307" type="line"/>
      <point x="149" y="346" type="line"/>
      <point x="74" y="346" type="line"/>
      <point x="74" y="307" type="line"/>
      <point x="89" y="307" type="line"/>
      <point x="89" y="38" type="line"/>
      <point x="60" y="38" type="line"/>
      <point x="60" y="662" type="line"/>
      <point x="95" y="662" type="line"/>
      <point x="95" y="475" type="line"/>
      <point x="139" y="475" type="line"/>
      <point x="139" y="700" type="line"/>
      <point x="114" y="700" type="line"/>
      <point x="101" y="683" type="line"/>
      <point x="89" y="700" type="line"/>
      <point x="45" y="700" type="line"/>
      <point x="10" y="658" type="line"/>
      <point x="10" y="41" type="line"/>
      <point x="45" y="0" type="line"/>
      <point x="94" y="0" type="line"/>
      <point x="109" y="18" type="line"/>
    </contour>
  </outline>
  <guideline angle="90" x="138" y="0"/>
  <guideline angle="90" x="89" y="0"/>
</glyph>
<glyph name="H" format="2">
  <advance width="181"/>
  <unicode hex="0048"/>
  <outline>
    <contour>
      <point x="171" y="0" type="line"/>
      <point x="171" y="38" type="line"/>
      <point x="158" y="38" type="line"/>
      <point x="158" y="662" type="line"/>
      <point x="171" y="662" type="line"/>
      <point x="171" y="700" type="line"/>
      <point x="95" y="700" type="line"/>
      <point x="95" y="662" type="line"/>
      <point x="108" y="662" type="line"/>
      <point x="108" y="379" type="line"/>
      <point x="73" y="379" type="line"/>
      <point x="73" y="662" type="line"/>
      <point x="86" y="662" type="line"/>
      <point x="86" y="700" type="line"/>
      <point x="10" y="700" type="line"/>
      <point x="10" y="662" type="line"/>
      <point x="23" y="662" type="line"/>
      <point x="23" y="38" type="line"/>
      <point x="10" y="38" type="line"/>
      <point x="10" y="0" type="line"/>
      <point x="86" y="0" type="line"/>
      <point x="86" y="38" type="line"/>
      <point x="73" y="38" type="line"/>
      <point x="73" y="341" type="line"/>
      <point x="108" y="341" type="line"/>
      <point x="108" y="38" type="line"/>
      <point x="95" y="38" type="line"/>
      <point x="95" y="0" type="line"/>
    </contour>
  </outline>
  <guideline angle="90" x="13" y="0"/>
  <guideline angle="90" x="83" y="0"/>
  <guideline angle="90" x="98" y="0"/>
  <guideline angle="90" x="168" y="0"/>
</glyph>
<glyph name="I" format="2">
  <advance width="102"/>
  <unicode hex="0049"/>
  <outline>
    <contour>
      <point x="78" y="662" type="line"/>
      <point x="91" y="662" type="line"/>
      <point x="91" y="700" type="line"/>
      <point x="15" y="700" type="line"/>
      <point x="15" y="662" type="line"/>
      <point x="28" y="662" type="line"/>
      <point x="28" y="38" type="line"/>
      <point x="15" y="38" type="line"/>
      <point x="15" y="0" type="line"/>
      <point x="91" y="0" type="line"/>
      <point x="91" y="38" type="line"/>
      <point x="78" y="38" type="line"/>
    </contour>
  </outline>
</glyph>
<glyph name="J" format="2">
  <advance width="151"/>
  <unicode hex="004A"/>
  <outline>
    <contour>
      <point x="33" y="0" type="line"/>
      <point x="94" y="0" type="line"/>
      <point x="128" y="41" type="line"/>
      <point x="128" y="662" type="line"/>
      <point x="141" y="662" type="line"/>
      <point x="141" y="700" type="line"/>
      <point x="63" y="700" type="line"/>
      <point x="63" y="662" type="line"/>
      <point x="78" y="662" type="line"/>
      <point x="78" y="38" type="line"/>
      <point x="49" y="38" type="line"/>
      <point x="49" y="225" type="line"/>
      <point x="3" y="225" type="line"/>
      <point x="3" y="36" type="line"/>
    </contour>
  </outline>
</glyph>
<glyph name="K" format="2">
  <advance width="186"/>
  <unicode hex="004B"/>
  <outline>
    <contour>
      <point x="80" y="662" type="line"/>
      <point x="96" y="662" type="line"/>
      <point x="96" y="700" type="line"/>
      <point x="18" y="700" type="line"/>
      <point x="18" y="662" type="line"/>
      <point x="31" y="662" type="line"/>
      <point x="31" y="38" type="line"/>
      <point x="18" y="38" type="line"/>
      <point x="18" y="0" type="line"/>
      <point x="94" y="0" type="line"/>
      <point x="94" y="38" type="line"/>
      <point x="80" y="38" type="line"/>
    </contour>
    <contour>
      <point x="73" y="345" type="line"/>
      <point x="78" y="252" type="line"/>
      <point x="102" y="380" type="line"/>
      <point x="112" y="354" type="line"/>
      <point x="139" y="492"/>
      <point x="172" y="670"/>
      <point x="172" y="670" type="curve"/>
      <point x="133" y="670" type="line"/>
    </contour>
    <contour>
      <point x="115" y="449" type="line"/>
      <point x="85" y="323" type="line"/>
      <point x="124" y="30" type="line"/>
      <point x="124" y="30"/>
      <point x="176" y="31"/>
      <point x="176" y="31" type="curve"/>
    </contour>
    <contour>
      <point x="116" y="662" type="line"/>
      <point x="183" y="662" type="line"/>
      <point x="183" y="700" type="line"/>
      <point x="116" y="700" type="line"/>
    </contour>
    <contour>
      <point x="111" y="0" type="line"/>
      <point x="186" y="0" type="line"/>
      <point x="186" y="38" type="line"/>
      <point x="111" y="38" type="line"/>
    </contour>
  </outline>
  <guideline angle="90" x="205" y="0"/>
</glyph>
<glyph name="L" format="2">
  <advance width="158"/>
  <unicode hex="004C"/>
  <outline>
    <contour>
      <point x="78" y="38" type="line"/>
      <point x="78" y="662" type="line"/>
      <point x="93" y="662" type="line"/>
      <point x="93" y="700" type="line"/>
      <point x="15" y="700" type="line"/>
      <point x="15" y="662" type="line"/>
      <point x="28" y="662" type="line"/>
      <point x="28" y="38" type="line"/>
      <point x="15" y="38" type="line"/>
      <point x="15" y="0" type="line"/>
      <point x="125" y="0" type="line"/>
      <point x="153" y="34" type="line"/>
      <point x="153" y="237" type="line"/>
      <point x="107" y="237" type="line"/>
      <point x="107" y="38" type="line"/>
    </contour>
  </outline>
</glyph>
<glyph name="M" format="2">
  <advance width="283"/>
  <unicode hex="004D"/>
  <outline>
    <contour>
      <point x="260" y="662" type="line"/>
      <point x="273" y="662" type="line"/>
      <point x="273" y="700" type="line"/>
      <point x="199" y="700" type="line"/>
      <point x="178" y="662" type="line"/>
      <point x="149" y="390" type="line"/>
      <point x="142" y="312" type="line"/>
      <point x="140" y="312" type="line"/>
      <point x="134" y="390" type="line"/>
      <point x="105" y="662" type="line"/>
      <point x="81" y="700" type="line"/>
      <point x="10" y="700" type="line"/>
      <point x="10" y="662" type="line"/>
      <point x="23" y="662" type="line"/>
      <point x="23" y="38" type="line"/>
      <point x="10" y="38" type="line"/>
      <point x="10" y="0" type="line"/>
      <point x="74" y="0" type="line"/>
      <point x="74" y="38" type="line"/>
      <point x="61" y="38" type="line"/>
      <point x="61" y="537" type="line"/>
      <point x="60" y="573" type="line"/>
      <point x="62" y="573" type="line"/>
      <point x="65" y="539" type="line"/>
      <point x="121" y="18" type="line"/>
      <point x="131" y="0" type="line"/>
      <point x="143" y="0" type="line"/>
      <point x="153" y="18" type="line"/>
      <point x="206" y="538" type="line"/>
      <point x="209" y="573" type="line"/>
      <point x="211" y="573" type="line"/>
      <point x="210" y="537" type="line"/>
      <point x="210" y="38" type="line"/>
      <point x="197" y="38" type="line"/>
      <point x="197" y="0" type="line"/>
      <point x="273" y="0" type="line"/>
      <point x="273" y="38" type="line"/>
      <point x="260" y="38" type="line"/>
    </contour>
  </outline>
  <guideline angle="0" x="0" y="543"/>
  <guideline angle="0" x="0" y="537"/>
  <guideline angle="0" x="0" y="573"/>
</glyph>
<glyph name="N" format="2">
  <advance width="204"/>
  <unicode hex="004E"/>
  <outline>
    <contour>
      <point x="70" y="662" type="line"/>
      <point x="92" y="669" type="line"/>
      <point x="71" y="700" type="line"/>
      <point x="10" y="700" type="line"/>
      <point x="10" y="662" type="line"/>
      <point x="28" y="662" type="line"/>
      <point x="28" y="38" type="line"/>
      <point x="10" y="38" type="line"/>
      <point x="10" y="0" type="line"/>
      <point x="88" y="0" type="line"/>
      <point x="88" y="38" type="line"/>
      <point x="70" y="38" type="line"/>
    </contour>
    <contour>
      <point x="178" y="662" type="line"/>
      <point x="194" y="662" type="line"/>
      <point x="194" y="700" type="line"/>
      <point x="118" y="700" type="line"/>
      <point x="118" y="662" type="line"/>
      <point x="136" y="662" type="line"/>
      <point x="136" y="38" type="line"/>
      <point x="130" y="14" type="line"/>
      <point x="140" y="0" type="line"/>
      <point x="169" y="0" type="line"/>
      <point x="178" y="14" type="line"/>
    </contour>
    <contour>
      <point x="130" y="14" type="line"/>
      <point x="130" y="14"/>
      <point x="158" y="13"/>
      <point x="158" y="13" type="curve"/>
      <point x="158" y="13"/>
      <point x="149" y="259"/>
      <point x="149" y="259" type="curve"/>
      <point x="149" y="259"/>
      <point x="92" y="669"/>
      <point x="92" y="669" type="curve"/>
      <point x="42" y="676" type="line"/>
    </contour>
  </outline>
</glyph>
<glyph name="O" format="2">
  <advance width="149"/>
  <unicode hex="004F"/>
  <outline>
    <contour>
      <point x="10" y="41" type="line"/>
      <point x="44" y="0" type="line"/>
      <point x="105" y="0" type="line"/>
      <point x="139" y="41" type="line"/>
      <point x="139" y="659" type="line"/>
      <point x="105" y="700" type="line"/>
      <point x="44" y="700" type="line"/>
      <point x="10" y="659" type="line"/>
    </contour>
    <contour>
      <point x="89" y="662" type="line"/>
      <point x="89" y="38" type="line"/>
      <point x="60" y="38" type="line"/>
      <point x="60" y="662" type="line"/>
    </contour>
  </outline>
</glyph>
<glyph name="P" format="2">
  <advance width="167"/>
  <unicode hex="0050"/>
  <outline>
    <contour>
      <point x="78" y="331" type="line"/>
      <point x="120" y="331" type="line"/>
      <point x="157" y="370" type="line"/>
      <point x="157" y="655" type="line"/>
      <point x="120" y="700" type="line"/>
      <point x="15" y="700" type="line"/>
      <point x="15" y="662" type="line"/>
      <point x="28" y="662" type="line"/>
      <point x="28" y="38" type="line"/>
      <point x="15" y="38" type="line"/>
      <point x="15" y="0" type="line"/>
      <point x="98" y="0" type="line"/>
      <point x="98" y="38" type="line"/>
      <point x="78" y="38" type="line"/>
    </contour>
    <contour>
      <point x="78" y="662" type="line"/>
      <point x="107" y="662" type="line"/>
      <point x="107" y="369" type="line"/>
      <point x="78" y="369" type="line"/>
    </contour>
  </outline>
</glyph>
<glyph name="Q" format="2">
  <advance width="192"/>
  <unicode hex="0051"/>
  <outline>
    <contour>
      <point x="111" y="55" type="line"/>
      <point x="111" y="55"/>
      <point x="112" y="36"/>
      <point x="112" y="36" type="curve"/>
      <point x="141" y="0" type="line"/>
      <point x="141" y="0"/>
      <point x="169" y="0"/>
      <point x="169" y="0" type="curve"/>
      <point x="169" y="0"/>
      <point x="169" y="55"/>
      <point x="169" y="55" type="curve"/>
    </contour>
    <contour>
      <point x="13" y="41" type="line"/>
      <point x="47" y="0" type="line"/>
      <point x="108" y="0" type="line"/>
      <point x="142" y="41" type="line"/>
      <point x="142" y="659" type="line"/>
      <point x="108" y="700" type="line"/>
      <point x="47" y="700" type="line"/>
      <point x="13" y="659" type="line"/>
    </contour>
    <contour>
      <point x="92" y="662" type="line"/>
      <point x="92" y="38" type="line"/>
      <point x="63" y="38" type="line"/>
      <point x="63" y="662" type="line"/>
    </contour>
  </outline>
</glyph>
<glyph name="R" format="2">
  <advance width="194"/>
  <unicode hex="0052"/>
  <outline>
    <contour>
      <point x="134" y="0" type="line"/>
      <point x="176" y="0" type="line"/>
      <point x="176" y="38" type="line"/>
      <point x="161" y="38" type="line"/>
      <point x="161" y="349" type="line"/>
      <point x="141" y="370" type="line"/>
      <point x="161" y="390" type="line"/>
      <point x="161" y="655" type="line"/>
      <point x="124" y="700" type="line"/>
      <point x="19" y="700" type="line"/>
      <point x="19" y="662" type="line"/>
      <point x="32" y="662" type="line"/>
      <point x="32" y="38" type="line"/>
      <point x="19" y="38" type="line"/>
      <point x="19" y="0" type="line"/>
      <point x="98" y="0" type="line"/>
      <point x="98" y="38" type="line"/>
      <point x="82" y="38" type="line"/>
      <point x="82" y="351" type="line"/>
      <point x="111" y="351" type="line"/>
      <point x="111" y="28" type="line"/>
    </contour>
    <contour>
      <point x="82" y="662" type="line"/>
      <point x="111" y="662" type="line"/>
      <point x="111" y="389" type="line"/>
      <point x="82" y="389" type="line"/>
    </contour>
  </outline>
</glyph>
<glyph name="S" format="2">
  <advance width="146"/>
  <unicode hex="0053"/>
  <outline>
    <contour>
      <point x="21" y="399" type="line"/>
      <point x="86" y="321" type="line"/>
      <point x="86" y="38" type="line"/>
      <point x="55" y="38" type="line"/>
      <point x="55" y="225" type="line"/>
      <point x="10" y="225" type="line"/>
      <point x="10" y="0" type="line"/>
      <point x="37" y="0" type="line"/>
      <point x="49" y="15" type="line"/>
      <point x="62" y="0" type="line"/>
      <point x="103" y="0" type="line"/>
      <point x="137" y="31" type="line"/>
      <point x="137" y="330" type="line"/>
      <point x="126" y="356" type="line"/>
      <point x="61" y="432" type="line"/>
      <point x="61" y="662" type="line"/>
      <point x="90" y="662" type="line"/>
      <point x="90" y="478" type="line"/>
      <point x="132" y="478" type="line"/>
      <point x="132" y="700" type="line"/>
      <point x="106" y="700" type="line"/>
      <point x="94" y="686" type="line"/>
      <point x="83" y="700" type="line"/>
      <point x="46" y="700" type="line"/>
      <point x="12" y="659" type="line"/>
      <point x="12" y="424" type="line"/>
    </contour>
  </outline>
  <guideline angle="90.7792" x="13" y="0"/>
  <guideline angle="90" x="137" y="0"/>
</glyph>
<glyph name="T" format="2">
  <advance width="203"/>
  <unicode hex="0054"/>
  <outline>
    <contour>
      <point x="10" y="475" type="line"/>
      <point x="51" y="475" type="line"/>
      <point x="51" y="662" type="line"/>
      <point x="76" y="662" type="line"/>
      <point x="76" y="38" type="line"/>
      <point x="56" y="38" type="line"/>
      <point x="56" y="0" type="line"/>
      <point x="146" y="0" type="line"/>
      <point x="146" y="38" type="line"/>
      <point x="126" y="38" type="line"/>
      <point x="126" y="662" type="line"/>
      <point x="151" y="662" type="line"/>
      <point x="151" y="475" type="line"/>
      <point x="192" y="475" type="line"/>
      <point x="192" y="669" type="line"/>
      <point x="167" y="700" type="line"/>
      <point x="35" y="700" type="line"/>
      <point x="10" y="669" type="line"/>
    </contour>
  </outline>
</glyph>
<glyph name="U" format="2">
  <advance width="182"/>
  <unicode hex="0055"/>
  <outline>
    <contour>
      <point x="103" y="662" type="line"/>
      <point x="113" y="662" type="line"/>
      <point x="113" y="38" type="line"/>
      <point x="79" y="38" type="line"/>
      <point x="79" y="662" type="line"/>
      <point x="89" y="662" type="line"/>
      <point x="89" y="700" type="line"/>
      <point x="16" y="700" type="line"/>
      <point x="16" y="662" type="line"/>
      <point x="29" y="662" type="line"/>
      <point x="29" y="41" type="line"/>
      <point x="63" y="0" type="line"/>
      <point x="119" y="0" type="line"/>
      <point x="153" y="41" type="line"/>
      <point x="153" y="662" type="line"/>
      <point x="166" y="662" type="line"/>
      <point x="166" y="700" type="line"/>
      <point x="103" y="700" type="line"/>
    </contour>
  </outline>
</glyph>
<glyph name="V" format="2">
  <advance width="191"/>
  <unicode hex="0056"/>
  <outline>
    <contour>
      <point x="188" y="662" type="line"/>
      <point x="188" y="662"/>
      <point x="175" y="662"/>
      <point x="175" y="662" type="curve"/>
      <point x="121" y="18" type="line"/>
      <point x="109" y="0" type="line"/>
      <point x="83" y="0" type="line"/>
      <point x="71" y="18" type="line"/>
      <point x="17" y="662" type="line"/>
      <point x="17" y="662"/>
      <point x="4" y="662"/>
      <point x="4" y="662" type="curve"/>
      <point x="4" y="662"/>
      <point x="3" y="700"/>
      <point x="3" y="700" type="curve"/>
      <point x="3" y="700"/>
      <point x="92" y="700"/>
      <point x="92" y="700" type="curve"/>
      <point x="92" y="700"/>
      <point x="92" y="662"/>
      <point x="92" y="662" type="curve"/>
      <point x="72" y="662" type="line"/>
      <point x="92" y="381" type="line"/>
      <point x="101" y="241" type="line"/>
      <point x="103" y="241" type="line"/>
      <point x="111" y="381" type="line"/>
      <point x="130" y="662" type="line"/>
      <point x="130" y="662"/>
      <point x="110" y="662"/>
      <point x="110" y="662" type="curve"/>
      <point x="109" y="700" type="line"/>
      <point x="188" y="700" type="line"/>
    </contour>
  </outline>
</glyph>
<glyph name="W" format="2">
  <advance width="282"/>
  <unicode hex="0057"/>
  <outline>
    <contour>
      <point x="104" y="342" type="line"/>
      <point x="79" y="662" type="line"/>
      <point x="23" y="662" type="line"/>
      <point x="73" y="20" type="line"/>
      <point x="88" y="0" type="line"/>
      <point x="102" y="0" type="line"/>
      <point x="102" y="0"/>
      <point x="115" y="19"/>
      <point x="116" y="19" type="curve"/>
      <point x="163" y="662" type="line"/>
      <point x="121" y="662" type="line"/>
    </contour>
    <contour>
      <point x="10" y="662" type="line"/>
      <point x="98" y="662" type="line"/>
      <point x="98" y="700" type="line"/>
      <point x="10" y="700" type="line"/>
    </contour>
    <contour>
      <point x="107" y="662" type="line"/>
      <point x="192" y="662" type="line"/>
      <point x="192" y="700" type="line"/>
      <point x="107" y="700" type="line"/>
    </contour>
    <contour>
      <point x="193" y="342" type="line"/>
      <point x="174" y="662" type="line"/>
      <point x="148" y="662" type="line"/>
      <point x="129" y="586" type="line"/>
      <point x="168" y="20" type="line"/>
      <point x="183" y="0" type="line"/>
      <point x="197" y="0" type="line"/>
      <point x="197" y="0"/>
      <point x="210" y="19"/>
      <point x="211" y="19" type="curve"/>
      <point x="258" y="662" type="line"/>
      <point x="216" y="662" type="line"/>
    </contour>
    <contour>
      <point x="202" y="662" type="line"/>
      <point x="272" y="662" type="line"/>
      <point x="272" y="700" type="line"/>
      <point x="202" y="700" type="line"/>
    </contour>
  </outline>
</glyph>
<glyph name="X" format="2">
  <advance width="206"/>
  <unicode hex="0058"/>
  <outline>
    <contour>
      <point x="118" y="28" type="line"/>
      <point x="118" y="28"/>
      <point x="180" y="28"/>
      <point x="180" y="28" type="curve"/>
      <point x="82" y="674" type="line"/>
      <point x="25" y="671" type="line"/>
    </contour>
    <contour>
      <point x="19" y="30" type="line"/>
      <point x="19" y="30"/>
      <point x="65" y="30"/>
      <point x="64" y="30" type="curve"/>
      <point x="185" y="669" type="line"/>
      <point x="141" y="672" type="line"/>
    </contour>
    <contour>
      <point x="10" y="662" type="line"/>
      <point x="104" y="662" type="line"/>
      <point x="104" y="700" type="line"/>
      <point x="10" y="700" type="line"/>
    </contour>
    <contour>
      <point x="112" y="662" type="line"/>
      <point x="196" y="662" type="line"/>
      <point x="196" y="700" type="line"/>
      <point x="112" y="700" type="line"/>
    </contour>
    <contour>
      <point x="99" y="1" type="line"/>
      <point x="196" y="1" type="line"/>
      <point x="196" y="38" type="line"/>
      <point x="99" y="38" type="line"/>
    </contour>
    <contour>
      <point x="10" y="0" type="line"/>
      <point x="91" y="0" type="line"/>
      <point x="91" y="38" type="line"/>
      <point x="10" y="38" type="line"/>
    </contour>
  </outline>
  <guideline angle="90" x="10" y="0"/>
  <guideline angle="90" x="196" y="0"/>
</glyph>
<glyph name="Z" format="2">
  <advance width="173"/>
  <unicode hex="005A"/>
  <outline>
    <contour>
      <point x="18" y="674" type="line"/>
      <point x="38" y="700" type="line"/>
      <point x="123" y="700" type="line"/>
      <point x="157" y="669" type="line"/>
      <point x="66" y="38" type="line"/>
      <point x="118" y="38" type="line"/>
      <point x="118" y="225" type="line"/>
      <point x="163" y="225" type="line"/>
      <point x="163" y="22" type="line"/>
      <point x="140" y="0" type="line"/>
      <point x="27" y="0" type="line"/>
      <point x="10" y="24" type="line"/>
      <point x="104" y="662" type="line"/>
      <point x="58" y="662" type="line"/>
      <point x="58" y="470" type="line"/>
      <point x="18" y="470" type="line"/>
    </contour>
  </outline>
  <guideline angle="90" x="58" y="0"/>
  <guideline angle="90" x="163" y="0"/>
</glyph>
<glyph name="asciicircum" format="2">
  <advance width="186"/>
  <unicode hex="005E"/>
  <outline>
    <contour>
      <point x="75" y="668" type="line"/>
      <point x="10" y="548" type="line"/>
      <point x="18" y="539" type="line"/>
      <point x="91" y="618" type="line"/>
      <point x="95" y="618" type="line"/>
      <point x="168" y="539" type="line"/>
      <point x="176" y="548" type="line"/>
      <point x="111" y="668" type="line"/>
    </contour>
  </outline>
</glyph>
<glyph name="a" format="2">
  <advance width="148"/>
  <unicode hex="0061"/>
  <outline>
    <contour>
      <point x="84" y="470" type="line"/>
      <point x="84" y="32" type="line"/>
      <point x="134" y="32" type="line"/>
      <point x="134" y="467" type="line"/>
      <point x="100" y="508" type="line"/>
      <point x="39" y="508" type="line"/>
      <point x="5" y="467" type="line"/>
      <point x="5" y="369" type="line"/>
      <point x="55" y="369" type="line"/>
      <point x="55" y="470" type="line"/>
    </contour>
    <contour>
      <point x="55" y="38" type="line"/>
      <point x="55" y="264" type="line"/>
      <point x="5" y="264" type="line"/>
      <point x="5" y="41" type="line"/>
      <point x="39" y="0" type="line"/>
      <point x="74" y="0" type="line"/>
      <point x="105" y="38" type="line"/>
    </contour>
    <contour>
      <point x="147" y="0" type="line"/>
      <point x="147" y="38" type="line"/>
      <point x="69" y="38" type="line"/>
      <point x="100" y="0" type="line"/>
    </contour>
    <contour>
      <point x="5" y="264" type="line"/>
      <point x="50" y="255" type="line"/>
      <point x="106" y="339" type="line"/>
      <point x="93" y="381" type="line"/>
    </contour>
  </outline>
  <guideline angle="0" x="0" y="470"/>
  <guideline angle="90" x="84" y="0"/>
</glyph>
<glyph name="b" format="2">
  <advance width="147"/>
  <unicode hex="0062"/>
  <outline>
    <contour>
      <point x="0" y="662" type="line"/>
      <point x="13" y="662" type="line"/>
      <point x="13" y="0" type="line"/>
      <point x="40" y="0" type="line"/>
      <point x="55" y="18" type="line"/>
      <point x="71" y="0" type="line"/>
      <point x="109" y="0" type="line"/>
      <point x="142" y="41" type="line"/>
      <point x="142" y="470" type="line"/>
      <point x="110" y="508" type="line"/>
      <point x="87" y="508" type="line"/>
      <point x="63" y="493" type="line"/>
      <point x="63" y="700" type="line"/>
      <point x="0" y="700" type="line"/>
    </contour>
    <contour>
      <point x="63" y="38" type="line"/>
      <point x="63" y="470" type="line"/>
      <point x="92" y="470" type="line"/>
      <point x="92" y="38" type="line"/>
    </contour>
  </outline>
</glyph>
<glyph name="c" format="2">
  <advance width="149"/>
  <unicode hex="0063"/>
  <outline>
    <contour>
      <point x="60" y="470" type="line"/>
      <point x="89" y="470" type="line"/>
      <point x="89" y="305" type="line"/>
      <point x="139" y="305" type="line"/>
      <point x="139" y="467" type="line"/>
      <point x="105" y="508" type="line"/>
      <point x="44" y="508" type="line"/>
      <point x="10" y="467" type="line"/>
      <point x="10" y="41" type="line"/>
      <point x="44" y="0" type="line"/>
      <point x="105" y="0" type="line"/>
      <point x="139" y="41" type="line"/>
      <point x="139" y="195" type="line"/>
      <point x="89" y="195" type="line"/>
      <point x="89" y="38" type="line"/>
      <point x="60" y="38" type="line"/>
    </contour>
  </outline>
  <guideline angle="90" x="127" y="0"/>
  <guideline angle="90" x="82" y="0"/>
</glyph>
<glyph name="d" format="2">
  <advance width="145"/>
  <unicode hex="0064"/>
  <outline>
    <contour>
      <point x="10" y="27" type="line"/>
      <point x="33" y="0" type="line"/>
      <point x="73" y="0" type="line"/>
      <point x="90" y="11" type="line"/>
      <point x="97" y="0" type="line"/>
      <point x="146" y="0" type="line"/>
      <point x="146" y="38" type="line"/>
      <point x="130" y="38" type="line"/>
      <point x="130" y="702" type="line"/>
      <point x="60" y="702" type="line"/>
      <point x="60" y="662" type="line"/>
      <point x="88" y="662" type="line"/>
      <point x="88" y="499" type="line"/>
      <point x="61" y="508" type="line"/>
      <point x="34" y="508" type="line"/>
      <point x="10" y="481" type="line"/>
    </contour>
    <contour>
      <point x="56" y="38" type="line"/>
      <point x="56" y="470" type="line"/>
      <point x="74" y="470" type="line"/>
      <point x="88" y="465" type="line"/>
      <point x="88" y="45" type="line"/>
      <point x="76" y="38" type="line"/>
    </contour>
  </outline>
  <guideline angle="90" x="88" y="0"/>
</glyph>
<glyph name="e" format="2">
  <advance width="149"/>
  <unicode hex="0065"/>
  <outline>
    <contour>
      <point x="139" y="256" type="line"/>
      <point x="139" y="467" type="line"/>
      <point x="105" y="508" type="line"/>
      <point x="44" y="508" type="line"/>
      <point x="10" y="467" type="line"/>
      <point x="10" y="41" type="line"/>
      <point x="44" y="0" type="line"/>
      <point x="105" y="0" type="line"/>
      <point x="139" y="41" type="line"/>
      <point x="139" y="195" type="line"/>
      <point x="89" y="195" type="line"/>
      <point x="89" y="38" type="line"/>
      <point x="60" y="38" type="line"/>
      <point x="60" y="256" type="line"/>
    </contour>
    <contour>
      <point x="60" y="470" type="line"/>
      <point x="89" y="470" type="line"/>
      <point x="89" y="294" type="line"/>
      <point x="60" y="294" type="line"/>
    </contour>
  </outline>
  <guideline angle="0" x="0" y="195"/>
</glyph>
<glyph name="f" format="2">
  <advance width="94"/>
  <unicode hex="0066"/>
  <outline>
    <contour>
      <point x="5" y="470" type="line"/>
      <point x="18" y="470" type="line"/>
      <point x="18" y="38" type="line"/>
      <point x="5" y="38" type="line"/>
      <point x="5" y="0" type="line"/>
      <point x="85" y="0" type="line"/>
      <point x="85" y="38" type="line"/>
      <point x="68" y="38" type="line"/>
      <point x="68" y="470" type="line"/>
      <point x="85" y="470" type="line"/>
      <point x="85" y="508" type="line"/>
      <point x="68" y="508" type="line"/>
      <point x="68" y="646" type="line"/>
      <point x="79" y="657" type="line"/>
      <point x="89" y="657" type="line"/>
      <point x="89" y="700" type="line"/>
      <point x="46" y="700" type="line"/>
      <point x="18" y="665" type="line"/>
      <point x="18" y="508" type="line"/>
      <point x="5" y="508" type="line"/>
    </contour>
  </outline>
  <guideline angle="90" x="2" y="0"/>
  <guideline angle="90" x="89" y="0"/>
</glyph>
<glyph name="g" format="2">
  <advance width="176"/>
  <unicode hex="0067"/>
  <outline>
    <contour>
      <point x="5" y="122" type="line"/>
      <point x="39" y="81" type="line"/>
      <point x="100" y="81" type="line"/>
      <point x="134" y="122" type="line"/>
      <point x="134" y="467" type="line"/>
      <point x="100" y="508" type="line"/>
      <point x="39" y="508" type="line"/>
      <point x="5" y="467" type="line"/>
    </contour>
    <contour>
      <point x="5" y="-83" type="line"/>
      <point x="33" y="-117" type="line"/>
      <point x="142" y="-117" type="line"/>
      <point x="176" y="-76" type="line"/>
      <point x="176" y="-13" type="line"/>
      <point x="142" y="28" type="line"/>
      <point x="49" y="28" type="line"/>
      <point x="39" y="8" type="line"/>
      <point x="5" y="-33" type="line"/>
    </contour>
    <contour>
      <point x="5" y="22" type="line"/>
      <point x="39" y="-19" type="line"/>
      <point x="55" y="11" type="line"/>
      <point x="55" y="102" type="line"/>
      <point x="39" y="102" type="line"/>
      <point x="5" y="61" type="line"/>
    </contour>
    <contour>
      <point x="84" y="470" type="line"/>
      <point x="84" y="119" type="line"/>
      <point x="55" y="119" type="line"/>
      <point x="55" y="470" type="line"/>
    </contour>
    <contour>
      <point x="126" y="-22" type="line"/>
      <point x="126" y="-79" type="line"/>
      <point x="44" y="-79" type="line"/>
      <point x="44" y="-22" type="line"/>
    </contour>
    <contour>
      <point x="124" y="478" type="line"/>
      <point x="123" y="450" type="line"/>
      <point x="164" y="450" type="line"/>
      <point x="176" y="463" type="line"/>
      <point x="176" y="497" type="line"/>
      <point x="164" y="508" type="line"/>
      <point x="139" y="508" type="line"/>
    </contour>
  </outline>
  <guideline angle="90" x="433" y="0"/>
  <guideline angle="90" x="-259" y="0"/>
  <guideline angle="90" x="-132" y="0"/>
  <guideline angle="90" x="-181" y="0"/>
  <guideline angle="90" x="164" y="0"/>
</glyph>
<glyph name="h" format="2">
  <advance width="170"/>
  <unicode hex="0068"/>
  <outline>
    <contour>
      <point x="88" y="0" type="line"/>
      <point x="161" y="0" type="line"/>
      <point x="161" y="38" type="line"/>
      <point x="148" y="38" type="line"/>
      <point x="148" y="473" type="line"/>
      <point x="119" y="508" type="line"/>
      <point x="89" y="508" type="line"/>
      <point x="69" y="493" type="line"/>
      <point x="69" y="700" type="line"/>
      <point x="6" y="700" type="line"/>
      <point x="6" y="662" type="line"/>
      <point x="19" y="662" type="line"/>
      <point x="19" y="38" type="line"/>
      <point x="6" y="38" type="line"/>
      <point x="6" y="0" type="line"/>
      <point x="79" y="0" type="line"/>
      <point x="79" y="38" type="line"/>
      <point x="69" y="38" type="line"/>
      <point x="69" y="470" type="line"/>
      <point x="98" y="470" type="line"/>
      <point x="98" y="38" type="line"/>
      <point x="88" y="38" type="line"/>
    </contour>
  </outline>
</glyph>
<glyph name="i" format="2">
  <advance width="100"/>
  <unicode hex="0069"/>
  <outline>
    <contour>
      <point x="10" y="470" type="line"/>
      <point x="28" y="470" type="line"/>
      <point x="28" y="38" type="line"/>
      <point x="10" y="38" type="line"/>
      <point x="10" y="0" type="line"/>
      <point x="90" y="0" type="line"/>
      <point x="90" y="38" type="line"/>
      <point x="75" y="38" type="line"/>
      <point x="75" y="489" type="line"/>
      <point x="57" y="508" type="line"/>
      <point x="10" y="508" type="line"/>
    </contour>
    <contour>
      <point x="35" y="565" type="line"/>
      <point x="71" y="565" type="line"/>
      <point x="71" y="652" type="line"/>
      <point x="35" y="652" type="line"/>
    </contour>
  </outline>
</glyph>
<glyph name="j" format="2">
  <advance width="95"/>
  <unicode hex="006A"/>
  <outline>
    <contour>
      <point x="18" y="470" type="line"/>
      <point x="38" y="470" type="line"/>
      <point x="38" y="64" type="line"/>
      <point x="85" y="64" type="line"/>
      <point x="85" y="489" type="line"/>
      <point x="67" y="508" type="line"/>
      <point x="18" y="508" type="line"/>
    </contour>
    <contour>
      <point x="45" y="565" type="line"/>
      <point x="81" y="565" type="line"/>
      <point x="81" y="652" type="line"/>
      <point x="45" y="652" type="line"/>
    </contour>
    <contour>
      <point x="8" y="-130" type="line"/>
      <point x="57" y="-130" type="line"/>
      <point x="85" y="-101" type="line"/>
      <point x="85" y="323" type="line"/>
      <point x="38" y="323" type="line"/>
      <point x="38" y="-76" type="line"/>
      <point x="32" y="-82" type="line"/>
      <point x="8" y="-82" type="line"/>
    </contour>
  </outline>
</glyph>
<glyph name="k" format="2">
  <advance width="189"/>
  <unicode hex="006B"/>
  <outline>
    <contour>
      <point x="75" y="700" type="line"/>
      <point x="9" y="700" type="line"/>
      <point x="9" y="662" type="line"/>
      <point x="23" y="662" type="line"/>
      <point x="23" y="38" type="line"/>
      <point x="10" y="38" type="line"/>
      <point x="10" y="0" type="line"/>
      <point x="89" y="0" type="line"/>
      <point x="89" y="38" type="line"/>
      <point x="75" y="38" type="line"/>
    </contour>
    <contour>
      <point x="65" y="247" type="line"/>
      <point x="68" y="144" type="line"/>
      <point x="161" y="478" type="line"/>
      <point x="125" y="478" type="line"/>
    </contour>
    <contour>
      <point x="116" y="393" type="line"/>
      <point x="94" y="249" type="line"/>
      <point x="119" y="30" type="line"/>
      <point x="169" y="31" type="line"/>
    </contour>
    <contour>
      <point x="110" y="470" type="line"/>
      <point x="173" y="470" type="line"/>
      <point x="173" y="508" type="line"/>
      <point x="110" y="508" type="line"/>
    </contour>
    <contour>
      <point x="106" y="0" type="line"/>
      <point x="181" y="0" type="line"/>
      <point x="181" y="38" type="line"/>
      <point x="106" y="38" type="line"/>
    </contour>
  </outline>
</glyph>
<glyph name="l" format="2">
  <advance width="82"/>
  <unicode hex="006C"/>
  <outline>
    <contour>
      <point x="0" y="662" type="line"/>
      <point x="13" y="662" type="line"/>
      <point x="13" y="38" type="line"/>
      <point x="0" y="38" type="line"/>
      <point x="0" y="0" type="line"/>
      <point x="72" y="0" type="line"/>
      <point x="72" y="38" type="line"/>
      <point x="60" y="38" type="line"/>
      <point x="60" y="700" type="line"/>
      <point x="0" y="700" type="line"/>
    </contour>
  </outline>
</glyph>
<glyph name="m" format="2">
  <advance width="249"/>
  <unicode hex="006D"/>
  <outline>
    <contour>
      <point x="102" y="470" type="line"/>
      <point x="102" y="34" type="line"/>
      <point x="152" y="34" type="line"/>
      <point x="152" y="472" type="line"/>
      <point x="155" y="473" type="line"/>
      <point x="126" y="508" type="line"/>
      <point x="92" y="508" type="line"/>
      <point x="65" y="475" type="line"/>
      <point x="23" y="473" type="line"/>
      <point x="23" y="34" type="line"/>
      <point x="73" y="34" type="line"/>
      <point x="73" y="470" type="line"/>
    </contour>
    <contour>
      <point x="181" y="470" type="line"/>
      <point x="181" y="34" type="line"/>
      <point x="231" y="34" type="line"/>
      <point x="231" y="473" type="line"/>
      <point x="201" y="508" type="line"/>
      <point x="162" y="508" type="line"/>
      <point x="128" y="467" type="line"/>
      <point x="130" y="397" type="line"/>
      <point x="152" y="397" type="line"/>
      <point x="152" y="470" type="line"/>
    </contour>
    <contour>
      <point x="10" y="508" type="line"/>
      <point x="10" y="470" type="line"/>
      <point x="90" y="470" type="line"/>
      <point x="59" y="508" type="line"/>
    </contour>
    <contour>
      <point x="171" y="0" type="line"/>
      <point x="244" y="0" type="line"/>
      <point x="244" y="38" type="line"/>
      <point x="171" y="38" type="line"/>
    </contour>
    <contour>
      <point x="10" y="0" type="line"/>
      <point x="83" y="0" type="line"/>
      <point x="83" y="38" type="line"/>
      <point x="10" y="38" type="line"/>
    </contour>
    <contour>
      <point x="92" y="0" type="line"/>
      <point x="162" y="0" type="line"/>
      <point x="162" y="38" type="line"/>
      <point x="92" y="38" type="line"/>
    </contour>
  </outline>
</glyph>
<glyph name="n" format="2">
  <advance width="171"/>
  <unicode hex="006E"/>
  <outline>
    <contour>
      <point x="92" y="0" type="line"/>
      <point x="165" y="0" type="line"/>
      <point x="165" y="38" type="line"/>
      <point x="152" y="38" type="line"/>
      <point x="152" y="473" type="line"/>
      <point x="123" y="508" type="line"/>
      <point x="93" y="508" type="line"/>
      <point x="76" y="488" type="line"/>
      <point x="59" y="508" type="line"/>
      <point x="10" y="508" type="line"/>
      <point x="10" y="470" type="line"/>
      <point x="23" y="470" type="line"/>
      <point x="23" y="38" type="line"/>
      <point x="10" y="38" type="line"/>
      <point x="10" y="0" type="line"/>
      <point x="83" y="0" type="line"/>
      <point x="83" y="38" type="line"/>
      <point x="73" y="38" type="line"/>
      <point x="73" y="470" type="line"/>
      <point x="102" y="470" type="line"/>
      <point x="102" y="38" type="line"/>
      <point x="92" y="38" type="line"/>
    </contour>
  </outline>
  <guideline angle="90" x="10" y="0"/>
</glyph>
<glyph name="o" format="2">
  <advance width="149"/>
  <unicode hex="006F"/>
  <outline>
    <contour>
      <point x="10" y="41" type="line"/>
      <point x="44" y="0" type="line"/>
      <point x="105" y="0" type="line"/>
      <point x="139" y="41" type="line"/>
      <point x="139" y="467" type="line"/>
      <point x="105" y="508" type="line"/>
      <point x="44" y="508" type="line"/>
      <point x="10" y="467" type="line"/>
    </contour>
    <contour>
      <point x="89" y="470" type="line"/>
      <point x="89" y="38" type="line"/>
      <point x="60" y="38" type="line"/>
      <point x="60" y="470" type="line"/>
    </contour>
  </outline>
</glyph>
<glyph name="p" format="2">
  <advance width="140"/>
  <unicode hex="0070"/>
  <outline>
    <contour>
      <point x="130" y="479" type="line"/>
      <point x="104" y="508" type="line"/>
      <point x="78" y="508" type="line"/>
      <point x="57" y="486" type="line"/>
      <point x="47" y="508" type="line"/>
      <point x="0" y="508" type="line"/>
      <point x="0" y="470" type="line"/>
      <point x="16" y="470" type="line"/>
      <point x="16" y="-104" type="line"/>
      <point x="58" y="-104" type="line"/>
      <point x="58" y="15" type="line"/>
      <point x="79" y="0" type="line"/>
      <point x="107" y="0" type="line"/>
      <point x="130" y="25" type="line"/>
    </contour>
    <contour>
      <point x="90" y="470" type="line"/>
      <point x="90" y="38" type="line"/>
      <point x="58" y="38" type="line"/>
      <point x="58" y="470" type="line"/>
    </contour>
    <contour>
      <point x="0" y="-130" type="line"/>
      <point x="75" y="-130" type="line"/>
      <point x="75" y="-92" type="line"/>
      <point x="0" y="-92" type="line"/>
    </contour>
  </outline>
  <guideline angle="90" x="0" y="0"/>
</glyph>
<glyph name="q" format="2">
  <advance width="143"/>
  <unicode hex="0071"/>
  <outline>
    <contour>
      <point x="126" y="508" type="line"/>
      <point x="107" y="508" type="line"/>
      <point x="95" y="492" type="line"/>
      <point x="82" y="508" type="line"/>
      <point x="37" y="508" type="line"/>
      <point x="10" y="480" type="line"/>
      <point x="10" y="27" type="line"/>
      <point x="34" y="0" type="line"/>
      <point x="66" y="0" type="line"/>
      <point x="84" y="16" type="line"/>
      <point x="84" y="-118" type="line"/>
      <point x="126" y="-118" type="line"/>
    </contour>
    <contour>
      <point x="84" y="470" type="line"/>
      <point x="84" y="38" type="line"/>
      <point x="52" y="38" type="line"/>
      <point x="52" y="470" type="line"/>
    </contour>
    <contour>
      <point x="62" y="-129" type="line"/>
      <point x="138" y="-129" type="line"/>
      <point x="138" y="-91" type="line"/>
      <point x="62" y="-91" type="line"/>
    </contour>
  </outline>
  <guideline angle="90" x="126" y="0"/>
</glyph>
<glyph name="r" format="2">
  <advance width="150"/>
  <unicode hex="0072"/>
  <outline>
    <contour>
      <point x="102" y="470" type="line"/>
      <point x="102" y="347" type="line"/>
      <point x="145" y="347" type="line"/>
      <point x="145" y="478" type="line"/>
      <point x="120" y="508" type="line"/>
      <point x="91" y="508" type="line"/>
      <point x="51" y="486" type="line"/>
      <point x="23" y="473" type="line"/>
      <point x="23" y="34" type="line"/>
      <point x="73" y="34" type="line"/>
      <point x="73" y="470" type="line"/>
    </contour>
    <contour>
      <point x="10" y="508" type="line"/>
      <point x="10" y="470" type="line"/>
      <point x="65" y="470" type="line"/>
      <point x="65" y="508" type="line"/>
    </contour>
    <contour>
      <point x="10" y="0" type="line"/>
      <point x="88" y="0" type="line"/>
      <point x="88" y="38" type="line"/>
      <point x="10" y="38" type="line"/>
    </contour>
  </outline>
  <guideline angle="90" x="10" y="0"/>
</glyph>
<glyph name="s" format="2">
  <advance width="146"/>
  <unicode hex="0073"/>
  <outline>
    <contour>
      <point x="22" y="285" type="line"/>
      <point x="86" y="207" type="line"/>
      <point x="86" y="38" type="line"/>
      <point x="55" y="38" type="line"/>
      <point x="55" y="195" type="line"/>
      <point x="10" y="195" type="line"/>
      <point x="10" y="0" type="line"/>
      <point x="37" y="0" type="line"/>
      <point x="49" y="15" type="line"/>
      <point x="62" y="0" type="line"/>
      <point x="103" y="0" type="line"/>
      <point x="137" y="31" type="line"/>
      <point x="137" y="216" type="line"/>
      <point x="126" y="242" type="line"/>
      <point x="62" y="318" type="line"/>
      <point x="62" y="470" type="line"/>
      <point x="91" y="470" type="line"/>
      <point x="91" y="332" type="line"/>
      <point x="133" y="332" type="line"/>
      <point x="133" y="508" type="line"/>
      <point x="107" y="508" type="line"/>
      <point x="95" y="494" type="line"/>
      <point x="84" y="508" type="line"/>
      <point x="47" y="508" type="line"/>
      <point x="13" y="467" type="line"/>
      <point x="13" y="310" type="line"/>
    </contour>
  </outline>
  <guideline angle="90" x="10" y="0"/>
  <guideline angle="90" x="137" y="0"/>
</glyph>
<glyph name="t" format="2">
  <advance width="96"/>
  <unicode hex="0074"/>
  <outline>
    <contour>
      <point x="15" y="35" type="line"/>
      <point x="43" y="0" type="line"/>
      <point x="86" y="0" type="line"/>
      <point x="86" y="44" type="line"/>
      <point x="76" y="44" type="line"/>
      <point x="65" y="55" type="line"/>
      <point x="65" y="470" type="line"/>
      <point x="86" y="470" type="line"/>
      <point x="86" y="508" type="line"/>
      <point x="2" y="508" type="line"/>
      <point x="2" y="470" type="line"/>
      <point x="15" y="470" type="line"/>
    </contour>
    <contour>
      <point x="15" y="495" type="line"/>
      <point x="65" y="495" type="line"/>
      <point x="65" y="620" type="line"/>
      <point x="30" y="620" type="line"/>
    </contour>
  </outline>
  <guideline angle="90" x="85" y="0"/>
  <guideline angle="90" x="16" y="0"/>
  <guideline angle="90" x="63" y="0"/>
</glyph>
<glyph name="u" format="2">
  <advance width="156"/>
  <unicode hex="0075"/>
  <outline>
    <contour>
      <point x="10" y="508" type="line"/>
      <point x="10" y="470" type="line"/>
      <point x="26" y="470" type="line"/>
      <point x="26" y="30" type="line"/>
      <point x="57" y="0" type="line"/>
      <point x="81" y="0" type="line"/>
      <point x="95" y="15" type="line"/>
      <point x="108" y="0" type="line"/>
      <point x="156" y="0" type="line"/>
      <point x="156" y="38" type="line"/>
      <point x="140" y="38" type="line"/>
      <point x="140" y="489" type="line"/>
      <point x="120" y="508" type="line"/>
      <point x="83" y="508" type="line"/>
      <point x="83" y="470" type="line"/>
      <point x="98" y="470" type="line"/>
      <point x="98" y="38" type="line"/>
      <point x="66" y="38" type="line"/>
      <point x="66" y="508" type="line"/>
    </contour>
  </outline>
</glyph>
<glyph name="v" format="2">
  <advance width="157"/>
  <unicode hex="0076"/>
  <outline>
    <contour>
      <point x="87" y="218" type="line"/>
      <point x="85" y="218" type="line"/>
      <point x="79" y="328" type="line"/>
      <point x="66" y="494" type="line"/>
      <point x="13" y="494" type="line"/>
      <point x="61" y="18" type="line"/>
      <point x="73" y="0" type="line"/>
      <point x="93" y="0" type="line"/>
      <point x="105" y="18" type="line"/>
      <point x="143" y="494" type="line"/>
      <point x="102" y="494" type="line"/>
      <point x="92" y="328" type="line"/>
    </contour>
    <contour>
      <point x="3" y="470" type="line"/>
      <point x="80" y="470" type="line"/>
      <point x="80" y="508" type="line"/>
      <point x="3" y="508" type="line"/>
    </contour>
    <contour>
      <point x="90" y="470" type="line"/>
      <point x="154" y="470" type="line"/>
      <point x="154" y="508" type="line"/>
      <point x="90" y="508" type="line"/>
    </contour>
  </outline>
</glyph>
<glyph name="w" format="2">
  <advance width="249"/>
  <unicode hex="0077"/>
  <outline>
    <contour>
      <point x="3" y="470" type="line"/>
      <point x="15" y="470" type="line"/>
      <point x="56" y="18" type="line"/>
      <point x="68" y="0" type="line"/>
      <point x="88" y="0" type="line"/>
      <point x="100" y="18" type="line"/>
      <point x="117" y="198" type="line"/>
      <point x="123" y="307" type="line"/>
      <point x="125" y="307" type="line"/>
      <point x="132" y="198" type="line"/>
      <point x="148" y="18" type="line"/>
      <point x="160" y="0" type="line"/>
      <point x="180" y="0" type="line"/>
      <point x="192" y="18" type="line"/>
      <point x="233" y="470" type="line"/>
      <point x="246" y="470" type="line"/>
      <point x="246" y="508" type="line"/>
      <point x="182" y="508" type="line"/>
      <point x="182" y="470" type="line"/>
      <point x="192" y="470" type="line"/>
      <point x="183" y="328" type="line"/>
      <point x="178" y="218" type="line"/>
      <point x="176" y="218" type="line"/>
      <point x="170" y="328" type="line"/>
      <point x="152" y="490" type="line"/>
      <point x="140" y="508" type="line"/>
      <point x="118" y="508" type="line"/>
      <point x="106" y="490" type="line"/>
      <point x="91" y="328" type="line"/>
      <point x="86" y="218" type="line"/>
      <point x="84" y="218" type="line"/>
      <point x="78" y="328" type="line"/>
      <point x="67" y="470" type="line"/>
      <point x="80" y="470" type="line"/>
      <point x="80" y="508" type="line"/>
      <point x="3" y="508" type="line"/>
    </contour>
  </outline>
  <guideline angle="0" x="0" y="290"/>
  <guideline angle="0" x="0" y="198"/>
</glyph>
<glyph name="x" format="2">
  <advance width="156"/>
  <unicode hex="0078"/>
  <outline>
    <contour>
      <point x="96" y="28" type="line"/>
      <point x="96" y="28"/>
      <point x="146" y="28"/>
      <point x="146" y="28" type="curve"/>
      <point x="62" y="483" type="line"/>
      <point x="17" y="481" type="line"/>
    </contour>
    <contour>
      <point x="13" y="29" type="line"/>
      <point x="13" y="29"/>
      <point x="50" y="29"/>
      <point x="49" y="29" type="curve"/>
      <point x="145" y="479" type="line"/>
      <point x="109" y="482" type="line"/>
    </contour>
    <contour>
      <point x="3" y="470" type="line"/>
      <point x="77" y="470" type="line"/>
      <point x="77" y="508" type="line"/>
      <point x="3" y="508" type="line"/>
    </contour>
    <contour>
      <point x="85" y="470" type="line"/>
      <point x="155" y="470" type="line"/>
      <point x="155" y="508" type="line"/>
      <point x="85" y="508" type="line"/>
    </contour>
    <contour>
      <point x="80" y="1" type="line"/>
      <point x="156" y="1" type="line"/>
      <point x="156" y="38" type="line"/>
      <point x="80" y="38" type="line"/>
    </contour>
    <contour>
      <point x="0" y="0" type="line"/>
      <point x="67" y="0" type="line"/>
      <point x="67" y="38" type="line"/>
      <point x="0" y="38" type="line"/>
    </contour>
  </outline>
  <guideline angle="90" x="-0" y="0"/>
  <guideline angle="90" x="199" y="0"/>
</glyph>
<glyph name="y" format="2">
  <advance width="157"/>
  <unicode hex="0079"/>
  <outline>
    <contour>
      <point x="87" y="198" type="line"/>
      <point x="85" y="198" type="line"/>
      <point x="79" y="308" type="line"/>
      <point x="66" y="494" type="line"/>
      <point x="13" y="494" type="line"/>
      <point x="65" y="-80" type="line"/>
      <point x="81" y="1" type="line"/>
      <point x="96" y="-104" type="line"/>
      <point x="143" y="494" type="line"/>
      <point x="102" y="494" type="line"/>
      <point x="92" y="308" type="line"/>
    </contour>
    <contour>
      <point x="3" y="470" type="line"/>
      <point x="80" y="470" type="line"/>
      <point x="80" y="508" type="line"/>
      <point x="3" y="508" type="line"/>
    </contour>
    <contour>
      <point x="90" y="470" type="line"/>
      <point x="154" y="470" type="line"/>
      <point x="154" y="508" type="line"/>
      <point x="90" y="508" type="line"/>
    </contour>
    <contour>
      <point x="29" y="-130" type="line"/>
      <point x="52" y="-130" type="line"/>
      <point x="79" y="-87" type="line"/>
      <point x="40" y="-87" type="line"/>
      <point x="40" y="-33" type="line"/>
      <point x="6" y="-33" type="line"/>
      <point x="6" y="-106" type="line"/>
    </contour>
    <contour>
      <point x="46" y="-130" type="line"/>
      <point x="71" y="-130" type="line"/>
      <point x="96" y="-104" type="line"/>
      <point x="96" y="12" type="line"/>
      <point x="71" y="41" type="line"/>
      <point x="59" y="-102" type="line"/>
      <point x="49" y="-92" type="line"/>
      <point x="46" y="-92" type="line"/>
    </contour>
  </outline>
  <guideline angle="0" x="0" y="-92"/>
  <guideline angle="0" x="0" y="-104"/>
</glyph>
<glyph name="z" format="2">
  <advance width="156"/>
  <unicode hex="007A"/>
  <outline>
    <contour>
      <point x="26" y="0" type="line"/>
      <point x="124" y="0" type="line"/>
      <point x="146" y="29" type="line"/>
      <point x="146" y="192" type="line"/>
      <point x="105" y="192" type="line"/>
      <point x="105" y="38" type="line"/>
      <point x="46" y="38" type="line"/>
      <point x="148" y="480" type="line"/>
      <point x="106" y="480" type="line"/>
      <point x="0" y="28" type="line"/>
    </contour>
    <contour>
      <point x="125" y="508" type="line"/>
      <point x="44" y="508" type="line"/>
      <point x="10" y="479" type="line"/>
      <point x="10" y="316" type="line"/>
      <point x="51" y="316" type="line"/>
      <point x="51" y="470" type="line"/>
      <point x="106" y="470" type="line"/>
      <point x="148" y="480" type="line"/>
    </contour>
  </outline>
</glyph>
<glyph name="cent" format="2">
  <advance width="360"/>
  <unicode hex="00A2"/>
  <outline>
    <contour>
      <point x="54" y="132" type="line"/>
      <point x="39" y="139" type="line"/>
      <point x="25" y="8" type="line"/>
      <point x="41" y="8" type="line"/>
    </contour>
    <contour>
      <point x="299" y="700" type="line"/>
      <point x="284" y="700" type="line"/>
      <point x="284" y="586" type="line"/>
      <point x="299" y="586" type="line"/>
    </contour>
    <contour>
      <point x="284" y="0" type="line"/>
      <point x="299" y="0" type="line"/>
      <point x="299" y="114" type="line"/>
      <point x="284" y="114" type="line"/>
    </contour>
    <contour>
      <point x="91" y="599" type="line"/>
      <point x="101" y="694" type="line"/>
      <point x="86" y="694" type="line"/>
      <point x="76" y="599" type="line"/>
    </contour>
    <contour>
      <point x="53" y="590" type="line"/>
      <point x="82" y="590" type="line"/>
      <point x="82" y="424" type="line"/>
      <point x="127" y="424" type="line"/>
      <point x="127" y="591" type="line"/>
      <point x="91" y="628" type="line"/>
      <point x="41" y="628" type="line"/>
      <point x="10" y="592" type="line"/>
      <point x="10" y="152" type="line"/>
      <point x="39" y="120" type="line"/>
      <point x="97" y="120" type="line"/>
      <point x="127" y="154" type="line"/>
      <point x="127" y="314" type="line"/>
      <point x="82" y="314" type="line"/>
      <point x="82" y="158" type="line"/>
      <point x="53" y="158" type="line"/>
    </contour>
    <contour>
      <point x="276" y="576" type="line"/>
      <point x="305" y="576" type="line"/>
      <point x="305" y="410" type="line"/>
      <point x="350" y="410" type="line"/>
      <point x="350" y="577" type="line"/>
      <point x="314" y="614" type="line"/>
      <point x="264" y="614" type="line"/>
      <point x="233" y="578" type="line"/>
      <point x="233" y="138" type="line"/>
      <point x="262" y="106" type="line"/>
      <point x="320" y="106" type="line"/>
      <point x="350" y="140" type="line"/>
      <point x="350" y="300" type="line"/>
      <point x="305" y="300" type="line"/>
      <point x="305" y="144" type="line"/>
      <point x="276" y="144" type="line"/>
    </contour>
  </outline>
</glyph>
<glyph name="sterling" format="2">
  <advance width="168"/>
  <unicode hex="00A3"/>
  <outline>
    <contour>
      <point x="82" y="662" type="line"/>
      <point x="111" y="662" type="line"/>
      <point x="111" y="520" type="line"/>
      <point x="148" y="520" type="line"/>
      <point x="148" y="666" type="line"/>
      <point x="122" y="700" type="line"/>
      <point x="51" y="700" type="line"/>
      <point x="28" y="662" type="line"/>
      <point x="28" y="38" type="line"/>
      <point x="10" y="38" type="line"/>
      <point x="10" y="0" type="line"/>
      <point x="140" y="0" type="line"/>
      <point x="158" y="23" type="line"/>
      <point x="158" y="227" type="line"/>
      <point x="111" y="227" type="line"/>
      <point x="111" y="38" type="line"/>
      <point x="82" y="38" type="line"/>
    </contour>
    <contour>
      <point x="10" y="332" type="line"/>
      <point x="137" y="332" type="line"/>
      <point x="137" y="364" type="line"/>
      <point x="10" y="364" type="line"/>
    </contour>
  </outline>
  <guideline angle="90" x="148" y="0"/>
</glyph>
<glyph name="yen" format="2">
  <advance width="196"/>
  <unicode hex="00A5"/>
  <outline>
    <contour>
      <point x="10" y="662" type="line"/>
      <point x="102" y="662" type="line"/>
      <point x="102" y="700" type="line"/>
      <point x="10" y="700" type="line"/>
    </contour>
    <contour>
      <point x="110" y="662" type="line"/>
      <point x="186" y="662" type="line"/>
      <point x="186" y="700" type="line"/>
      <point x="110" y="700" type="line"/>
    </contour>
    <contour>
      <point x="52" y="0" type="line"/>
      <point x="146" y="0" type="line"/>
      <point x="146" y="38" type="line"/>
      <point x="52" y="38" type="line"/>
    </contour>
    <contour>
      <point x="71" y="25" type="line"/>
      <point x="130" y="25" type="line"/>
      <point x="130" y="424" type="line"/>
      <point x="71" y="424" type="line"/>
    </contour>
    <contour>
      <point x="80" y="288" type="line"/>
      <point x="80" y="288"/>
      <point x="119" y="430"/>
      <point x="119" y="430" type="curve"/>
      <point x="119" y="430"/>
      <point x="76" y="676"/>
      <point x="76" y="676" type="curve"/>
      <point x="25" y="671" type="line"/>
    </contour>
    <contour>
      <point x="95" y="368" type="line"/>
      <point x="95" y="368"/>
      <point x="119" y="279"/>
      <point x="119" y="279" type="curve"/>
      <point x="177" y="671" type="line"/>
      <point x="138" y="671" type="line"/>
    </contour>
    <contour>
      <point x="25" y="282" type="line"/>
      <point x="171" y="282" type="line"/>
      <point x="171" y="314" type="line"/>
      <point x="25" y="314" type="line"/>
    </contour>
    <contour>
      <point x="25" y="334" type="line"/>
      <point x="171" y="334" type="line"/>
      <point x="171" y="366" type="line"/>
      <point x="25" y="366" type="line"/>
    </contour>
  </outline>
</glyph>
<glyph name="dieresis" format="2">
  <advance width="129"/>
  <unicode hex="00A8"/>
  <outline>
    <contour>
      <point x="37" y="606" type="line"/>
      <point x="10" y="606" type="line"/>
      <point x="10" y="540" type="line"/>
      <point x="37" y="540" type="line"/>
    </contour>
    <contour>
      <point x="88" y="606" type="line"/>
      <point x="61" y="606" type="line"/>
      <point x="61" y="540" type="line"/>
      <point x="88" y="540" type="line"/>
    </contour>
    <contour>
      <point x="119" y="719" type="line"/>
      <point x="119" y="748" type="line"/>
      <point x="78" y="748" type="line"/>
      <point x="78" y="719" type="line"/>
    </contour>
    <contour>
      <point x="55" y="719" type="line"/>
      <point x="55" y="748" type="line"/>
      <point x="14" y="748" type="line"/>
      <point x="14" y="719" type="line"/>
    </contour>
  </outline>
</glyph>
<glyph name="acute" format="2">
  <advance width="154"/>
  <unicode hex="00B4"/>
  <outline>
    <contour>
      <point x="36" y="541" type="line"/>
      <point x="52" y="536" type="line"/>
      <point x="110" y="662" type="line"/>
      <point x="74" y="675" type="line"/>
    </contour>
    <contour>
      <point x="38" y="728" type="line"/>
      <point x="45" y="713" type="line"/>
      <point x="141" y="750" type="line"/>
      <point x="124" y="784" type="line"/>
    </contour>
    <contour>
      <point x="74" y="724" type="line"/>
      <point x="120" y="724" type="line"/>
      <point x="144" y="747" type="line"/>
      <point x="144" y="773" type="line"/>
      <point x="139" y="776" type="line"/>
      <point x="118" y="755" type="line"/>
      <point x="102" y="755" type="line"/>
      <point x="80" y="784" type="line"/>
      <point x="34" y="784" type="line"/>
      <point x="10" y="761" type="line"/>
      <point x="10" y="735" type="line"/>
      <point x="15" y="732" type="line"/>
      <point x="36" y="753" type="line"/>
      <point x="52" y="753" type="line"/>
    </contour>
  </outline>
</glyph>
<glyph name="circumflex" format="2">
  <advance width="148"/>
  <unicode hex="02C6"/>
  <outline>
    <contour>
      <point x="45" y="673" type="line"/>
      <point x="10" y="545" type="line"/>
      <point x="22" y="540" type="line"/>
      <point x="61" y="633" type="line"/>
      <point x="65" y="633" type="line"/>
      <point x="104" y="540" type="line"/>
      <point x="116" y="545" type="line"/>
      <point x="81" y="673" type="line"/>
    </contour>
    <contour>
      <point x="62" y="773" type="line"/>
      <point x="22" y="719" type="line"/>
      <point x="30" y="710" type="line"/>
      <point x="76" y="743" type="line"/>
      <point x="84" y="743" type="line"/>
      <point x="130" y="710" type="line"/>
      <point x="138" y="718" type="line"/>
      <point x="98" y="773" type="line"/>
    </contour>
  </outline>
</glyph>
<glyph name="breve" format="2">
  <advance width="140"/>
  <unicode hex="02D8"/>
  <outline>
    <contour>
      <point x="130" y="774" type="line"/>
      <point x="106" y="774" type="line"/>
      <point x="106" y="765" type="line"/>
      <point x="92" y="751" type="line"/>
      <point x="64" y="751" type="line"/>
      <point x="50" y="765" type="line"/>
      <point x="50" y="774" type="line"/>
      <point x="26" y="774" type="line"/>
      <point x="26" y="758" type="line"/>
      <point x="51" y="719" type="line"/>
      <point x="105" y="719" type="line"/>
      <point x="130" y="758" type="line"/>
    </contour>
    <contour>
      <point x="103" y="606" type="line"/>
      <point x="79" y="606" type="line"/>
      <point x="79" y="594" type="line"/>
      <point x="65" y="574" type="line"/>
      <point x="48" y="574" type="line"/>
      <point x="34" y="594" type="line"/>
      <point x="34" y="606" type="line"/>
      <point x="10" y="606" type="line"/>
      <point x="10" y="580" type="line"/>
      <point x="35" y="541" type="line"/>
      <point x="78" y="541" type="line"/>
      <point x="103" y="580" type="line"/>
    </contour>
  </outline>
</glyph>
<glyph name="dotaccent" format="2">
  <advance width="65"/>
  <unicode hex="02D9"/>
  <outline>
    <contour>
      <point x="37" y="606" type="line"/>
      <point x="10" y="606" type="line"/>
      <point x="10" y="540" type="line"/>
      <point x="37" y="540" type="line"/>
    </contour>
    <contour>
      <point x="55" y="719" type="line"/>
      <point x="55" y="748" type="line"/>
      <point x="14" y="748" type="line"/>
      <point x="14" y="719" type="line"/>
    </contour>
  </outline>
</glyph>
<glyph name="ring" format="2">
  <advance width="152"/>
  <unicode hex="02DA"/>
  <outline>
    <contour>
      <point x="142" y="708" type="line"/>
      <point x="112" y="673" type="line"/>
      <point x="68" y="673" type="line"/>
      <point x="38" y="708" type="line"/>
      <point x="38" y="740" type="line"/>
      <point x="63" y="779" type="line"/>
      <point x="117" y="779" type="line"/>
      <point x="142" y="740" type="line"/>
    </contour>
    <contour>
      <point x="118" y="733" type="line"/>
      <point x="104" y="751" type="line"/>
      <point x="76" y="751" type="line"/>
      <point x="62" y="733" type="line"/>
      <point x="62" y="715" type="line"/>
      <point x="76" y="701" type="line"/>
      <point x="104" y="701" type="line"/>
      <point x="118" y="715" type="line"/>
    </contour>
    <contour>
      <point x="83" y="606" type="line"/>
      <point x="65" y="606" type="line"/>
      <point x="65" y="590" type="line"/>
      <point x="55" y="568" type="line"/>
      <point x="38" y="568" type="line"/>
      <point x="28" y="590" type="line"/>
      <point x="28" y="606" type="line"/>
      <point x="10" y="606" type="line"/>
      <point x="10" y="580" type="line"/>
      <point x="25" y="545" type="line"/>
      <point x="68" y="545" type="line"/>
      <point x="83" y="580" type="line"/>
    </contour>
    <contour>
      <point x="83" y="632" type="line"/>
      <point x="68" y="667" type="line"/>
      <point x="25" y="667" type="line"/>
      <point x="10" y="632" type="line"/>
      <point x="10" y="606" type="line"/>
      <point x="28" y="606" type="line"/>
      <point x="28" y="622" type="line"/>
      <point x="38" y="644" type="line"/>
      <point x="55" y="644" type="line"/>
      <point x="65" y="623" type="line"/>
      <point x="65" y="606" type="line"/>
      <point x="83" y="606" type="line"/>
    </contour>
  </outline>
</glyph>
<glyph name="tilde" format="2">
  <advance width="140"/>
  <unicode hex="02DC"/>
  <outline>
    <contour>
      <point x="30" y="606" type="line"/>
      <point x="16" y="593" type="line"/>
      <point x="10" y="550" type="line"/>
      <point x="17" y="548" type="line"/>
      <point x="29" y="573" type="line"/>
      <point x="38" y="573" type="line"/>
      <point x="54" y="541" type="line"/>
      <point x="84" y="541" type="line"/>
      <point x="98" y="554" type="line"/>
      <point x="104" y="597" type="line"/>
      <point x="97" y="599" type="line"/>
      <point x="85" y="574" type="line"/>
      <point x="76" y="574" type="line"/>
      <point x="60" y="606" type="line"/>
    </contour>
    <contour>
      <point x="52" y="770" type="line"/>
      <point x="37" y="760" type="line"/>
      <point x="31" y="726" type="line"/>
      <point x="38" y="724" type="line"/>
      <point x="51" y="744" type="line"/>
      <point x="60" y="744" type="line"/>
      <point x="77" y="719" type="line"/>
      <point x="109" y="719" type="line"/>
      <point x="124" y="729" type="line"/>
      <point x="130" y="763" type="line"/>
      <point x="123" y="765" type="line"/>
      <point x="110" y="745" type="line"/>
      <point x="101" y="745" type="line"/>
      <point x="84" y="770" type="line"/>
    </contour>
  </outline>
</glyph>
<glyph name="hungarumlaut" format="2">
  <advance width="133"/>
  <unicode hex="02DD"/>
  <outline>
    <contour>
      <point x="72" y="719" type="line"/>
      <point x="81" y="715" type="line"/>
      <point x="123" y="764" type="line"/>
      <point x="95" y="780" type="line"/>
    </contour>
    <contour>
      <point x="26" y="719" type="line"/>
      <point x="35" y="716" type="line"/>
      <point x="68" y="766" type="line"/>
      <point x="39" y="780" type="line"/>
    </contour>
    <contour>
      <point x="43" y="541" type="line"/>
      <point x="50" y="538" type="line"/>
      <point x="105" y="663" type="line"/>
      <point x="79" y="672" type="line"/>
    </contour>
    <contour>
      <point x="10" y="541" type="line"/>
      <point x="17" y="539" type="line"/>
      <point x="58" y="667" type="line"/>
      <point x="30" y="675" type="line"/>
    </contour>
  </outline>
</glyph>
<glyph name="quoteright" format="2">
  <advance width="69"/>
  <unicode hex="2019"/>
  <outline>
    <contour>
      <point x="59" y="700" type="line"/>
      <point x="10" y="700" type="line"/>
      <point x="10" y="618" type="line"/>
      <point x="34" y="618" type="line"/>
      <point x="10" y="559" type="line"/>
      <point x="23" y="559" type="line"/>
      <point x="59" y="618" type="line"/>
    </contour>
  </outline>
</glyph>
<glyph name="Euro" format="2">
  <advance width="166"/>
  <unicode hex="20AC"/>
  <outline>
    <contour>
      <point x="71" y="0" type="line"/>
      <point x="118" y="0" type="line"/>
      <point x="156" y="48" type="line"/>
      <point x="156" y="231" type="line"/>
      <point x="114" y="231" type="line"/>
      <point x="114" y="38" type="line"/>
      <point x="81" y="38" type="line"/>
      <point x="81" y="662" type="line"/>
      <point x="114" y="662" type="line"/>
      <point x="114" y="475" type="line"/>
      <point x="155" y="475" type="line"/>
      <point x="155" y="700" type="line"/>
      <point x="131" y="700" type="line"/>
      <point x="119" y="683" type="line"/>
      <point x="106" y="700" type="line"/>
      <point x="59" y="700" type="line"/>
      <point x="30" y="634" type="line"/>
      <point x="30" y="62" type="line"/>
    </contour>
    <contour>
      <point x="10" y="312" type="line"/>
      <point x="137" y="312" type="line"/>
      <point x="137" y="344" type="line"/>
      <point x="10" y="344" type="line"/>
    </contour>
    <contour>
      <point x="10" y="364" type="line"/>
      <point x="147" y="364" type="line"/>
      <point x="147" y="396" type="line"/>
      <point x="10" y="396" type="line"/>
    </contour>
  </outline>
</glyph>
